G04 EAGLE Gerber RS-274X export*
G75*
%MOMM*%
%FSLAX34Y34*%
%LPD*%
%INBottom Copper*%
%IPPOS*%
%AMOC8*
5,1,8,0,0,1.08239X$1,22.5*%
G01*
G04 Define Apertures*
%ADD10C,1.350000*%
%ADD11C,1.300000*%
%ADD12C,0.604000*%
%ADD13C,0.304800*%
%ADD14C,0.254000*%
G36*
X774745Y237550D02*
X774448Y237490D01*
X281432Y237490D01*
X281157Y237541D01*
X280902Y237705D01*
X280730Y237955D01*
X280670Y238252D01*
X280670Y579528D01*
X280721Y579803D01*
X280885Y580058D01*
X281135Y580230D01*
X281432Y580290D01*
X402871Y580290D01*
X403129Y580245D01*
X403388Y580088D01*
X403565Y579842D01*
X403633Y579546D01*
X403580Y579248D01*
X403414Y578994D01*
X403163Y578824D01*
X401813Y578265D01*
X399475Y575927D01*
X398210Y572873D01*
X398210Y569567D01*
X399475Y566513D01*
X401813Y564175D01*
X404867Y562910D01*
X408173Y562910D01*
X411227Y564175D01*
X413565Y566513D01*
X414830Y569567D01*
X414830Y572873D01*
X413565Y575927D01*
X411227Y578265D01*
X409877Y578824D01*
X409657Y578964D01*
X409477Y579209D01*
X409407Y579504D01*
X409458Y579803D01*
X409622Y580058D01*
X409872Y580230D01*
X410169Y580290D01*
X432871Y580290D01*
X433129Y580245D01*
X433388Y580088D01*
X433565Y579842D01*
X433633Y579546D01*
X433580Y579248D01*
X433414Y578994D01*
X433163Y578824D01*
X431813Y578265D01*
X429475Y575927D01*
X428210Y572873D01*
X428210Y569567D01*
X429475Y566513D01*
X431813Y564175D01*
X434867Y562910D01*
X438173Y562910D01*
X441227Y564175D01*
X443565Y566513D01*
X444830Y569567D01*
X444830Y572873D01*
X443565Y575927D01*
X441227Y578265D01*
X439877Y578824D01*
X439657Y578964D01*
X439477Y579209D01*
X439407Y579504D01*
X439458Y579803D01*
X439622Y580058D01*
X439872Y580230D01*
X440169Y580290D01*
X774448Y580290D01*
X774723Y580239D01*
X774978Y580075D01*
X775150Y579825D01*
X775210Y579528D01*
X775210Y238252D01*
X775159Y237977D01*
X774995Y237722D01*
X774745Y237550D01*
G37*
%LPC*%
G36*
X620418Y257076D02*
X624182Y257076D01*
X626841Y259735D01*
X627072Y259893D01*
X627368Y259958D01*
X627666Y259903D01*
X627919Y259735D01*
X630578Y257076D01*
X634342Y257076D01*
X637004Y259738D01*
X637004Y263502D01*
X634342Y266164D01*
X632183Y266164D01*
X631897Y266220D01*
X631644Y266387D01*
X612207Y285824D01*
X612044Y286066D01*
X611984Y286363D01*
X611984Y320993D01*
X612031Y321256D01*
X612190Y321514D01*
X612438Y321690D01*
X612734Y321755D01*
X613032Y321699D01*
X613285Y321532D01*
X615689Y319128D01*
X620121Y317292D01*
X624919Y317292D01*
X629351Y319128D01*
X632744Y322521D01*
X634580Y326953D01*
X634580Y331751D01*
X632744Y336183D01*
X629351Y339576D01*
X624919Y341412D01*
X620121Y341412D01*
X615689Y339576D01*
X613285Y337172D01*
X613065Y337019D01*
X612770Y336949D01*
X612471Y337000D01*
X612216Y337164D01*
X612044Y337414D01*
X611984Y337711D01*
X611984Y398361D01*
X612040Y398647D01*
X612207Y398900D01*
X612995Y399688D01*
X613215Y399841D01*
X613510Y399910D01*
X613809Y399860D01*
X614064Y399696D01*
X614236Y399446D01*
X614296Y399149D01*
X614296Y398224D01*
X615518Y395275D01*
X617784Y393008D01*
X617985Y392880D01*
X618162Y392634D01*
X618229Y392338D01*
X618176Y392040D01*
X618011Y391786D01*
X617787Y391635D01*
X615518Y389365D01*
X614296Y386416D01*
X614296Y383224D01*
X615518Y380275D01*
X617784Y378008D01*
X617985Y377880D01*
X618162Y377634D01*
X618229Y377338D01*
X618176Y377040D01*
X618011Y376786D01*
X617787Y376635D01*
X615518Y374365D01*
X614296Y371416D01*
X614296Y368224D01*
X615518Y365275D01*
X617784Y363008D01*
X617985Y362880D01*
X618162Y362634D01*
X618229Y362338D01*
X618176Y362040D01*
X618011Y361786D01*
X617787Y361635D01*
X615518Y359365D01*
X614296Y356416D01*
X614296Y353224D01*
X615518Y350275D01*
X617775Y348018D01*
X620724Y346796D01*
X623916Y346796D01*
X626865Y348018D01*
X629122Y350275D01*
X630344Y353224D01*
X630344Y356005D01*
X630391Y356268D01*
X630550Y356526D01*
X630798Y356702D01*
X631094Y356767D01*
X631392Y356711D01*
X631645Y356544D01*
X639603Y348586D01*
X639766Y348344D01*
X639826Y348047D01*
X639826Y293508D01*
X639770Y293222D01*
X639603Y292969D01*
X638076Y291442D01*
X638076Y287678D01*
X640738Y285016D01*
X644502Y285016D01*
X647164Y287678D01*
X647164Y291442D01*
X645637Y292969D01*
X645474Y293211D01*
X645414Y293508D01*
X645414Y306375D01*
X645461Y306638D01*
X645620Y306896D01*
X645868Y307072D01*
X646164Y307137D01*
X646462Y307081D01*
X646715Y306914D01*
X648013Y305616D01*
X648176Y305374D01*
X648236Y305077D01*
X648236Y302918D01*
X650898Y300256D01*
X654662Y300256D01*
X657324Y302918D01*
X657324Y304625D01*
X657371Y304888D01*
X657530Y305146D01*
X657778Y305322D01*
X658074Y305387D01*
X658372Y305331D01*
X658625Y305164D01*
X665793Y297996D01*
X665956Y297754D01*
X666016Y297457D01*
X666016Y295298D01*
X668678Y292636D01*
X672442Y292636D01*
X675104Y295298D01*
X675104Y299062D01*
X672442Y301724D01*
X670283Y301724D01*
X669997Y301780D01*
X669744Y301947D01*
X660011Y311680D01*
X659848Y311922D01*
X659788Y312219D01*
X659788Y335246D01*
X659835Y335510D01*
X659994Y335768D01*
X660242Y335943D01*
X660538Y336008D01*
X660836Y335953D01*
X661042Y335816D01*
X664822Y335816D01*
X667484Y338478D01*
X667484Y342242D01*
X665957Y343769D01*
X665794Y344011D01*
X665734Y344308D01*
X665734Y405737D01*
X655359Y416113D01*
X655198Y416349D01*
X655136Y416645D01*
X655193Y416943D01*
X655724Y418224D01*
X655724Y421416D01*
X654502Y424365D01*
X652236Y426632D01*
X652035Y426760D01*
X651858Y427006D01*
X651791Y427302D01*
X651844Y427600D01*
X652009Y427855D01*
X652233Y428005D01*
X654502Y430275D01*
X655724Y433224D01*
X655724Y436416D01*
X654502Y439365D01*
X652236Y441632D01*
X652035Y441760D01*
X651858Y442006D01*
X651791Y442302D01*
X651844Y442600D01*
X652009Y442855D01*
X652233Y443005D01*
X654502Y445275D01*
X655724Y448224D01*
X655724Y451416D01*
X654502Y454365D01*
X652236Y456632D01*
X652035Y456760D01*
X651858Y457006D01*
X651791Y457302D01*
X651844Y457600D01*
X652009Y457855D01*
X652233Y458005D01*
X654502Y460275D01*
X655724Y463224D01*
X655724Y466416D01*
X654502Y469365D01*
X652209Y471659D01*
X652071Y471748D01*
X651896Y471995D01*
X651830Y472291D01*
X651886Y472589D01*
X652054Y472842D01*
X658114Y478903D01*
X658114Y559932D01*
X658170Y560218D01*
X658337Y560471D01*
X659864Y561998D01*
X659864Y565762D01*
X657202Y568424D01*
X653438Y568424D01*
X650776Y565762D01*
X650776Y561998D01*
X652303Y560471D01*
X652466Y560229D01*
X652526Y559932D01*
X652526Y559700D01*
X652479Y559437D01*
X652320Y559178D01*
X652072Y559003D01*
X651776Y558938D01*
X651478Y558994D01*
X651225Y559161D01*
X649582Y560804D01*
X645818Y560804D01*
X643156Y558142D01*
X643156Y555983D01*
X643100Y555697D01*
X642933Y555444D01*
X633072Y545583D01*
X633072Y492635D01*
X633025Y492372D01*
X632866Y492114D01*
X632618Y491938D01*
X632322Y491873D01*
X632024Y491929D01*
X631771Y492096D01*
X629351Y494516D01*
X624919Y496352D01*
X620121Y496352D01*
X615689Y494516D01*
X612296Y491123D01*
X611320Y488767D01*
X611180Y488546D01*
X610935Y488367D01*
X610640Y488297D01*
X610341Y488348D01*
X610086Y488511D01*
X609914Y488762D01*
X609854Y489059D01*
X609854Y509067D01*
X609910Y509353D01*
X610077Y509606D01*
X624024Y523553D01*
X624266Y523716D01*
X624563Y523776D01*
X626722Y523776D01*
X629384Y526438D01*
X629384Y530202D01*
X626722Y532864D01*
X622958Y532864D01*
X620296Y530202D01*
X620296Y528043D01*
X620240Y527757D01*
X620073Y527504D01*
X612041Y519472D01*
X611821Y519319D01*
X611526Y519249D01*
X611227Y519300D01*
X610972Y519464D01*
X610800Y519714D01*
X610740Y520011D01*
X610740Y532813D01*
X610796Y533099D01*
X610963Y533352D01*
X611324Y533713D01*
X611566Y533876D01*
X611863Y533936D01*
X614022Y533936D01*
X616684Y536598D01*
X616684Y540362D01*
X614022Y543024D01*
X610258Y543024D01*
X607596Y540362D01*
X607596Y538203D01*
X607540Y537917D01*
X607373Y537664D01*
X605152Y535443D01*
X605152Y533414D01*
X605105Y533151D01*
X604946Y532892D01*
X604698Y532717D01*
X604402Y532652D01*
X604104Y532708D01*
X603851Y532875D01*
X601322Y535404D01*
X597916Y535404D01*
X597641Y535455D01*
X597386Y535619D01*
X597214Y535869D01*
X597154Y536166D01*
X597154Y542152D01*
X597210Y542438D01*
X597377Y542691D01*
X598904Y544218D01*
X598904Y547982D01*
X596242Y550644D01*
X592478Y550644D01*
X589816Y547982D01*
X589816Y544218D01*
X591343Y542691D01*
X591506Y542449D01*
X591566Y542152D01*
X591566Y535475D01*
X591510Y535189D01*
X591343Y534936D01*
X584852Y528446D01*
X584852Y447957D01*
X589281Y443527D01*
X589442Y443291D01*
X589505Y442995D01*
X589447Y442697D01*
X588916Y441416D01*
X588916Y438224D01*
X590138Y435275D01*
X592404Y433008D01*
X592605Y432880D01*
X592782Y432634D01*
X592849Y432338D01*
X592796Y432040D01*
X592631Y431786D01*
X592407Y431635D01*
X590138Y429365D01*
X588916Y426416D01*
X588916Y423224D01*
X589447Y421943D01*
X589504Y421664D01*
X589449Y421366D01*
X589281Y421113D01*
X573786Y405617D01*
X573786Y302486D01*
X573735Y302211D01*
X573571Y301956D01*
X573321Y301784D01*
X573024Y301724D01*
X572158Y301724D01*
X569496Y299062D01*
X569496Y295298D01*
X572158Y292636D01*
X575969Y292636D01*
X576035Y292682D01*
X576330Y292752D01*
X576629Y292701D01*
X576884Y292538D01*
X577056Y292287D01*
X577116Y291990D01*
X577116Y290218D01*
X579778Y287556D01*
X583542Y287556D01*
X586204Y290218D01*
X586204Y291925D01*
X586251Y292188D01*
X586410Y292446D01*
X586658Y292622D01*
X586954Y292687D01*
X587252Y292631D01*
X587505Y292464D01*
X617533Y262436D01*
X617696Y262194D01*
X617756Y261897D01*
X617756Y259738D01*
X620418Y257076D01*
G37*
G36*
X405059Y267490D02*
X461081Y267490D01*
X476730Y283139D01*
X476730Y403883D01*
X476786Y404169D01*
X476953Y404422D01*
X479244Y406713D01*
X479486Y406876D01*
X479783Y406936D01*
X481942Y406936D01*
X484604Y409598D01*
X484604Y413362D01*
X481942Y416024D01*
X478178Y416024D01*
X475516Y413362D01*
X475516Y411203D01*
X475460Y410917D01*
X475293Y410664D01*
X471142Y406513D01*
X471142Y380669D01*
X471095Y380406D01*
X470936Y380148D01*
X470688Y379972D01*
X470392Y379907D01*
X470094Y379963D01*
X469841Y380130D01*
X463859Y386113D01*
X463698Y386349D01*
X463636Y386645D01*
X463693Y386943D01*
X464224Y388224D01*
X464224Y391416D01*
X463002Y394365D01*
X460736Y396632D01*
X460535Y396760D01*
X460358Y397006D01*
X460291Y397302D01*
X460344Y397600D01*
X460509Y397855D01*
X460733Y398005D01*
X463002Y400275D01*
X464224Y403224D01*
X464224Y406416D01*
X463799Y407443D01*
X463741Y407722D01*
X463796Y408020D01*
X463964Y408273D01*
X482143Y426453D01*
X482385Y426616D01*
X482682Y426676D01*
X484482Y426676D01*
X487144Y429338D01*
X487144Y433102D01*
X485871Y434375D01*
X485708Y434617D01*
X485648Y434914D01*
X485648Y517006D01*
X485704Y517292D01*
X485871Y517545D01*
X487144Y518818D01*
X487144Y522582D01*
X484482Y525244D01*
X480718Y525244D01*
X478056Y522582D01*
X478056Y518818D01*
X479329Y517545D01*
X479492Y517303D01*
X479552Y517006D01*
X479552Y434914D01*
X479496Y434628D01*
X479329Y434375D01*
X478056Y433102D01*
X478056Y431302D01*
X478000Y431016D01*
X477833Y430763D01*
X465525Y418455D01*
X465305Y418302D01*
X465010Y418233D01*
X464711Y418283D01*
X464456Y418447D01*
X464284Y418697D01*
X464224Y418994D01*
X464224Y421416D01*
X463002Y424365D01*
X460736Y426632D01*
X460535Y426760D01*
X460358Y427006D01*
X460291Y427302D01*
X460344Y427600D01*
X460509Y427855D01*
X460733Y428005D01*
X463002Y430275D01*
X464224Y433224D01*
X464224Y436416D01*
X463002Y439365D01*
X460736Y441632D01*
X460535Y441760D01*
X460358Y442006D01*
X460291Y442302D01*
X460344Y442600D01*
X460509Y442855D01*
X460733Y443005D01*
X463002Y445275D01*
X464224Y448224D01*
X464224Y451416D01*
X463002Y454365D01*
X461305Y456063D01*
X461147Y456293D01*
X461082Y456589D01*
X461137Y456888D01*
X461305Y457140D01*
X463864Y459699D01*
X465240Y463022D01*
X465240Y464058D01*
X455438Y464058D01*
X455438Y473860D01*
X454402Y473860D01*
X451079Y472484D01*
X448595Y469999D01*
X448375Y469846D01*
X448080Y469776D01*
X447781Y469827D01*
X447526Y469991D01*
X447354Y470241D01*
X447294Y470538D01*
X447294Y516752D01*
X447350Y517038D01*
X447517Y517291D01*
X449044Y518818D01*
X449044Y522582D01*
X446382Y525244D01*
X442618Y525244D01*
X439956Y522582D01*
X439956Y518818D01*
X441483Y517291D01*
X441646Y517049D01*
X441706Y516752D01*
X441706Y492589D01*
X441659Y492326D01*
X441500Y492068D01*
X441252Y491892D01*
X440956Y491827D01*
X440658Y491883D01*
X440405Y492050D01*
X437197Y495258D01*
X432765Y497094D01*
X427967Y497094D01*
X423535Y495258D01*
X420142Y491865D01*
X418280Y487370D01*
X418140Y487149D01*
X417895Y486970D01*
X417600Y486900D01*
X417301Y486951D01*
X417046Y487114D01*
X416874Y487365D01*
X416814Y487662D01*
X416814Y537072D01*
X416870Y537358D01*
X417037Y537611D01*
X418564Y539138D01*
X418564Y542902D01*
X415902Y545564D01*
X412138Y545564D01*
X409476Y542902D01*
X409476Y539138D01*
X411003Y537611D01*
X411166Y537369D01*
X411226Y537072D01*
X411226Y464873D01*
X411170Y464587D01*
X411003Y464334D01*
X409147Y462479D01*
X408911Y462318D01*
X408615Y462256D01*
X408317Y462313D01*
X407036Y462844D01*
X403844Y462844D01*
X400895Y461622D01*
X398638Y459365D01*
X397416Y456416D01*
X397416Y453224D01*
X398638Y450275D01*
X400904Y448008D01*
X401105Y447880D01*
X401282Y447634D01*
X401349Y447338D01*
X401296Y447040D01*
X401131Y446786D01*
X400907Y446635D01*
X398638Y444365D01*
X397416Y441416D01*
X397416Y438224D01*
X398638Y435275D01*
X400904Y433008D01*
X401105Y432880D01*
X401282Y432634D01*
X401349Y432338D01*
X401296Y432040D01*
X401131Y431786D01*
X400907Y431635D01*
X398638Y429365D01*
X397416Y426416D01*
X397416Y423224D01*
X398638Y420275D01*
X400335Y418577D01*
X400493Y418347D01*
X400558Y418051D01*
X400503Y417752D01*
X400335Y417500D01*
X397776Y414941D01*
X396400Y411618D01*
X396400Y410582D01*
X414480Y410582D01*
X414480Y411618D01*
X413104Y414941D01*
X410545Y417500D01*
X410387Y417730D01*
X410322Y418026D01*
X410377Y418324D01*
X410545Y418577D01*
X412242Y420275D01*
X413464Y423224D01*
X413464Y426416D01*
X412242Y429365D01*
X409976Y431632D01*
X409775Y431760D01*
X409598Y432006D01*
X409531Y432302D01*
X409584Y432600D01*
X409749Y432855D01*
X409973Y433005D01*
X412242Y435275D01*
X413464Y438224D01*
X413464Y441416D01*
X412242Y444365D01*
X409976Y446632D01*
X409775Y446760D01*
X409598Y447006D01*
X409531Y447302D01*
X409584Y447600D01*
X409749Y447855D01*
X409973Y448005D01*
X412242Y450275D01*
X413464Y453224D01*
X413464Y456416D01*
X412933Y457697D01*
X412876Y457976D01*
X412931Y458275D01*
X413099Y458527D01*
X416814Y462243D01*
X416814Y482406D01*
X416859Y482664D01*
X417016Y482923D01*
X417262Y483101D01*
X417558Y483168D01*
X417856Y483115D01*
X418111Y482949D01*
X418280Y482698D01*
X420142Y478203D01*
X423535Y474810D01*
X427967Y472974D01*
X432765Y472974D01*
X437197Y474810D01*
X440405Y478018D01*
X440625Y478171D01*
X440920Y478241D01*
X441219Y478190D01*
X441474Y478026D01*
X441646Y477776D01*
X441706Y477479D01*
X441706Y444973D01*
X441650Y444687D01*
X441483Y444434D01*
X440145Y443096D01*
X439925Y442943D01*
X439630Y442873D01*
X439331Y442924D01*
X439076Y443088D01*
X438904Y443338D01*
X438844Y443635D01*
X438844Y446416D01*
X437622Y449365D01*
X435925Y451063D01*
X435767Y451293D01*
X435702Y451589D01*
X435757Y451888D01*
X435925Y452140D01*
X438484Y454699D01*
X439860Y458022D01*
X439860Y459058D01*
X421780Y459058D01*
X421780Y458022D01*
X423156Y454699D01*
X425715Y452140D01*
X425873Y451910D01*
X425938Y451614D01*
X425883Y451316D01*
X425715Y451063D01*
X424018Y449365D01*
X422796Y446416D01*
X422796Y443224D01*
X424018Y440275D01*
X426284Y438008D01*
X426485Y437880D01*
X426662Y437634D01*
X426729Y437338D01*
X426676Y437040D01*
X426511Y436786D01*
X426287Y436635D01*
X424018Y434365D01*
X422796Y431416D01*
X422796Y428224D01*
X424018Y425275D01*
X426284Y423008D01*
X426485Y422880D01*
X426662Y422634D01*
X426729Y422338D01*
X426676Y422040D01*
X426511Y421786D01*
X426287Y421635D01*
X424018Y419365D01*
X422796Y416416D01*
X422796Y413224D01*
X424018Y410275D01*
X426284Y408008D01*
X426485Y407880D01*
X426662Y407634D01*
X426729Y407338D01*
X426676Y407040D01*
X426511Y406786D01*
X426287Y406635D01*
X424018Y404365D01*
X422796Y401416D01*
X422796Y398224D01*
X424018Y395275D01*
X426284Y393008D01*
X426485Y392880D01*
X426662Y392634D01*
X426729Y392338D01*
X426676Y392040D01*
X426511Y391786D01*
X426287Y391635D01*
X424018Y389365D01*
X422796Y386416D01*
X422796Y383224D01*
X424018Y380275D01*
X426284Y378008D01*
X426485Y377880D01*
X426662Y377634D01*
X426729Y377338D01*
X426676Y377040D01*
X426511Y376786D01*
X426287Y376635D01*
X424018Y374365D01*
X422796Y371416D01*
X422796Y368224D01*
X423327Y366943D01*
X423384Y366664D01*
X423329Y366366D01*
X423161Y366113D01*
X418692Y361643D01*
X418692Y357359D01*
X418645Y357096D01*
X418486Y356838D01*
X418238Y356662D01*
X417942Y356597D01*
X417644Y356653D01*
X417391Y356820D01*
X413099Y361113D01*
X412938Y361349D01*
X412876Y361645D01*
X412933Y361943D01*
X413464Y363224D01*
X413464Y366416D01*
X412242Y369365D01*
X409976Y371632D01*
X409775Y371760D01*
X409598Y372006D01*
X409531Y372302D01*
X409584Y372600D01*
X409749Y372855D01*
X409973Y373005D01*
X412242Y375275D01*
X413464Y378224D01*
X413464Y381416D01*
X412242Y384365D01*
X409976Y386632D01*
X409775Y386760D01*
X409598Y387006D01*
X409531Y387302D01*
X409584Y387600D01*
X409749Y387855D01*
X409973Y388005D01*
X412242Y390275D01*
X413464Y393224D01*
X413464Y396416D01*
X412242Y399365D01*
X410545Y401063D01*
X410387Y401293D01*
X410322Y401589D01*
X410377Y401888D01*
X410545Y402140D01*
X413104Y404699D01*
X414480Y408022D01*
X414480Y409058D01*
X396400Y409058D01*
X396400Y408022D01*
X397776Y404699D01*
X400335Y402140D01*
X400493Y401910D01*
X400558Y401614D01*
X400503Y401316D01*
X400335Y401063D01*
X398638Y399365D01*
X397416Y396416D01*
X397416Y393224D01*
X397947Y391943D01*
X398004Y391664D01*
X397949Y391366D01*
X397781Y391113D01*
X370586Y363917D01*
X370586Y344308D01*
X370530Y344022D01*
X370363Y343769D01*
X368836Y342242D01*
X368836Y338478D01*
X371498Y335816D01*
X375262Y335816D01*
X377924Y338478D01*
X377924Y342242D01*
X376397Y343769D01*
X376234Y344011D01*
X376174Y344308D01*
X376174Y361287D01*
X376230Y361573D01*
X376397Y361826D01*
X396115Y381544D01*
X396335Y381697D01*
X396630Y381767D01*
X396929Y381716D01*
X397184Y381552D01*
X397356Y381302D01*
X397416Y381005D01*
X397416Y378224D01*
X397947Y376943D01*
X398004Y376664D01*
X397949Y376366D01*
X397781Y376113D01*
X393312Y371643D01*
X393312Y349079D01*
X393265Y348816D01*
X393106Y348558D01*
X392858Y348382D01*
X392562Y348317D01*
X392264Y348373D01*
X392011Y348540D01*
X390847Y349704D01*
X390684Y349946D01*
X390624Y350243D01*
X390624Y352402D01*
X387962Y355064D01*
X384198Y355064D01*
X381536Y352402D01*
X381536Y348638D01*
X384198Y345976D01*
X386108Y345976D01*
X386383Y345925D01*
X386638Y345761D01*
X386810Y345511D01*
X386870Y345214D01*
X386870Y285679D01*
X405059Y267490D01*
G37*
G36*
X308262Y529542D02*
X316790Y529542D01*
X316790Y530628D01*
X315376Y534042D01*
X312762Y536656D01*
X309348Y538070D01*
X308262Y538070D01*
X308262Y529542D01*
G37*
G36*
X298210Y529542D02*
X306738Y529542D01*
X306738Y538070D01*
X305652Y538070D01*
X302238Y536656D01*
X299624Y534042D01*
X298210Y530628D01*
X298210Y529542D01*
G37*
G36*
X325854Y520506D02*
X329146Y520506D01*
X332187Y521766D01*
X334514Y524093D01*
X335774Y527134D01*
X335774Y530426D01*
X334514Y533467D01*
X332187Y535794D01*
X329146Y537054D01*
X325854Y537054D01*
X322813Y535794D01*
X320486Y533467D01*
X319226Y530426D01*
X319226Y527134D01*
X320486Y524093D01*
X322813Y521766D01*
X325854Y520506D01*
G37*
G36*
X727494Y520506D02*
X730786Y520506D01*
X733827Y521766D01*
X736154Y524093D01*
X737414Y527134D01*
X737414Y530426D01*
X736154Y533467D01*
X733827Y535794D01*
X730786Y537054D01*
X727494Y537054D01*
X724453Y535794D01*
X722126Y533467D01*
X720866Y530426D01*
X720866Y527134D01*
X722126Y524093D01*
X724453Y521766D01*
X727494Y520506D01*
G37*
G36*
X747494Y520506D02*
X750786Y520506D01*
X753827Y521766D01*
X756154Y524093D01*
X757414Y527134D01*
X757414Y530426D01*
X756154Y533467D01*
X753827Y535794D01*
X750786Y537054D01*
X747494Y537054D01*
X744453Y535794D01*
X742126Y533467D01*
X740866Y530426D01*
X740866Y527134D01*
X742126Y524093D01*
X744453Y521766D01*
X747494Y520506D01*
G37*
G36*
X305652Y519490D02*
X306738Y519490D01*
X306738Y528018D01*
X298210Y528018D01*
X298210Y526932D01*
X299624Y523518D01*
X302238Y520904D01*
X305652Y519490D01*
G37*
G36*
X308262Y519490D02*
X309348Y519490D01*
X312762Y520904D01*
X315376Y523518D01*
X316790Y526932D01*
X316790Y528018D01*
X308262Y528018D01*
X308262Y519490D01*
G37*
G36*
X361338Y396776D02*
X365102Y396776D01*
X367764Y399438D01*
X367764Y403202D01*
X366237Y404729D01*
X366074Y404971D01*
X366014Y405268D01*
X366014Y506527D01*
X366070Y506813D01*
X366237Y507066D01*
X377116Y517945D01*
X377358Y518108D01*
X377655Y518168D01*
X380342Y518168D01*
X383004Y520830D01*
X383004Y524594D01*
X380342Y527256D01*
X376578Y527256D01*
X373916Y524594D01*
X373916Y522963D01*
X373860Y522677D01*
X373693Y522424D01*
X360426Y509157D01*
X360426Y405268D01*
X360370Y404982D01*
X360203Y404729D01*
X358676Y403202D01*
X358676Y399438D01*
X361338Y396776D01*
G37*
G36*
X747494Y500506D02*
X750786Y500506D01*
X753827Y501766D01*
X756154Y504093D01*
X757414Y507134D01*
X757414Y510426D01*
X756154Y513467D01*
X753827Y515794D01*
X750786Y517054D01*
X747494Y517054D01*
X744453Y515794D01*
X742126Y513467D01*
X740866Y510426D01*
X740866Y507134D01*
X742126Y504093D01*
X744453Y501766D01*
X747494Y500506D01*
G37*
G36*
X305854Y500506D02*
X309146Y500506D01*
X312187Y501766D01*
X314514Y504093D01*
X315774Y507134D01*
X315774Y510426D01*
X314514Y513467D01*
X312187Y515794D01*
X309146Y517054D01*
X305854Y517054D01*
X302813Y515794D01*
X300486Y513467D01*
X299226Y510426D01*
X299226Y507134D01*
X300486Y504093D01*
X302813Y501766D01*
X305854Y500506D01*
G37*
G36*
X325854Y500506D02*
X329146Y500506D01*
X332187Y501766D01*
X334514Y504093D01*
X335774Y507134D01*
X335774Y510426D01*
X334514Y513467D01*
X332187Y515794D01*
X329146Y517054D01*
X325854Y517054D01*
X322813Y515794D01*
X320486Y513467D01*
X319226Y510426D01*
X319226Y507134D01*
X320486Y504093D01*
X322813Y501766D01*
X325854Y500506D01*
G37*
G36*
X727494Y500506D02*
X730786Y500506D01*
X733827Y501766D01*
X736154Y504093D01*
X737414Y507134D01*
X737414Y510426D01*
X736154Y513467D01*
X733827Y515794D01*
X730786Y517054D01*
X727494Y517054D01*
X724453Y515794D01*
X722126Y513467D01*
X720866Y510426D01*
X720866Y507134D01*
X722126Y504093D01*
X724453Y501766D01*
X727494Y500506D01*
G37*
G36*
X325854Y480506D02*
X329146Y480506D01*
X332187Y481766D01*
X334514Y484093D01*
X335774Y487134D01*
X335774Y490426D01*
X334514Y493467D01*
X332187Y495794D01*
X329146Y497054D01*
X325854Y497054D01*
X322813Y495794D01*
X320486Y493467D01*
X319226Y490426D01*
X319226Y487134D01*
X320486Y484093D01*
X322813Y481766D01*
X325854Y480506D01*
G37*
G36*
X305854Y480506D02*
X309146Y480506D01*
X312187Y481766D01*
X314514Y484093D01*
X315774Y487134D01*
X315774Y490426D01*
X314514Y493467D01*
X312187Y495794D01*
X309146Y497054D01*
X305854Y497054D01*
X302813Y495794D01*
X300486Y493467D01*
X299226Y490426D01*
X299226Y487134D01*
X300486Y484093D01*
X302813Y481766D01*
X305854Y480506D01*
G37*
G36*
X727494Y480506D02*
X730786Y480506D01*
X733827Y481766D01*
X736154Y484093D01*
X737414Y487134D01*
X737414Y490426D01*
X736154Y493467D01*
X733827Y495794D01*
X730786Y497054D01*
X727494Y497054D01*
X724453Y495794D01*
X722126Y493467D01*
X720866Y490426D01*
X720866Y487134D01*
X722126Y484093D01*
X724453Y481766D01*
X727494Y480506D01*
G37*
G36*
X747494Y480506D02*
X750786Y480506D01*
X753827Y481766D01*
X756154Y484093D01*
X757414Y487134D01*
X757414Y490426D01*
X756154Y493467D01*
X753827Y495794D01*
X750786Y497054D01*
X747494Y497054D01*
X744453Y495794D01*
X742126Y493467D01*
X740866Y490426D01*
X740866Y487134D01*
X742126Y484093D01*
X744453Y481766D01*
X747494Y480506D01*
G37*
G36*
X374038Y422176D02*
X377802Y422176D01*
X380464Y424838D01*
X380464Y428602D01*
X378937Y430129D01*
X378774Y430371D01*
X378714Y430668D01*
X378714Y460807D01*
X378770Y461093D01*
X378937Y461346D01*
X395424Y477833D01*
X395666Y477996D01*
X395963Y478056D01*
X398122Y478056D01*
X400784Y480718D01*
X400784Y484482D01*
X398122Y487144D01*
X394358Y487144D01*
X391696Y484482D01*
X391696Y482323D01*
X391640Y482037D01*
X391473Y481784D01*
X373126Y463437D01*
X373126Y430668D01*
X373070Y430382D01*
X372903Y430129D01*
X371376Y428602D01*
X371376Y424838D01*
X374038Y422176D01*
G37*
G36*
X325854Y460506D02*
X329146Y460506D01*
X332187Y461766D01*
X334514Y464093D01*
X335774Y467134D01*
X335774Y470426D01*
X334514Y473467D01*
X332187Y475794D01*
X329146Y477054D01*
X325854Y477054D01*
X322813Y475794D01*
X320486Y473467D01*
X319226Y470426D01*
X319226Y467134D01*
X320486Y464093D01*
X322813Y461766D01*
X325854Y460506D01*
G37*
G36*
X305854Y460506D02*
X309146Y460506D01*
X312187Y461766D01*
X314514Y464093D01*
X315774Y467134D01*
X315774Y470426D01*
X314514Y473467D01*
X312187Y475794D01*
X309146Y477054D01*
X305854Y477054D01*
X302813Y475794D01*
X300486Y473467D01*
X299226Y470426D01*
X299226Y467134D01*
X300486Y464093D01*
X302813Y461766D01*
X305854Y460506D01*
G37*
G36*
X747494Y460506D02*
X750786Y460506D01*
X753827Y461766D01*
X756154Y464093D01*
X757414Y467134D01*
X757414Y470426D01*
X756154Y473467D01*
X753827Y475794D01*
X750786Y477054D01*
X747494Y477054D01*
X744453Y475794D01*
X742126Y473467D01*
X740866Y470426D01*
X740866Y467134D01*
X742126Y464093D01*
X744453Y461766D01*
X747494Y460506D01*
G37*
G36*
X727494Y460506D02*
X730786Y460506D01*
X733827Y461766D01*
X736154Y464093D01*
X737414Y467134D01*
X737414Y470426D01*
X736154Y473467D01*
X733827Y475794D01*
X730786Y477054D01*
X727494Y477054D01*
X724453Y475794D01*
X722126Y473467D01*
X720866Y470426D01*
X720866Y467134D01*
X722126Y464093D01*
X724453Y461766D01*
X727494Y460506D01*
G37*
G36*
X456962Y465582D02*
X465240Y465582D01*
X465240Y466618D01*
X463864Y469941D01*
X461321Y472484D01*
X457998Y473860D01*
X456962Y473860D01*
X456962Y465582D01*
G37*
G36*
X431582Y460582D02*
X439860Y460582D01*
X439860Y461618D01*
X438484Y464941D01*
X435941Y467484D01*
X432618Y468860D01*
X431582Y468860D01*
X431582Y460582D01*
G37*
G36*
X421780Y460582D02*
X430058Y460582D01*
X430058Y468860D01*
X429022Y468860D01*
X425699Y467484D01*
X423156Y464941D01*
X421780Y461618D01*
X421780Y460582D01*
G37*
G36*
X747494Y440506D02*
X750786Y440506D01*
X753827Y441766D01*
X756154Y444093D01*
X757414Y447134D01*
X757414Y450426D01*
X756154Y453467D01*
X753827Y455794D01*
X750786Y457054D01*
X747494Y457054D01*
X744453Y455794D01*
X742126Y453467D01*
X740866Y450426D01*
X740866Y447134D01*
X742126Y444093D01*
X744453Y441766D01*
X747494Y440506D01*
G37*
G36*
X727494Y440506D02*
X730786Y440506D01*
X733827Y441766D01*
X736154Y444093D01*
X737414Y447134D01*
X737414Y450426D01*
X736154Y453467D01*
X733827Y455794D01*
X730786Y457054D01*
X727494Y457054D01*
X724453Y455794D01*
X722126Y453467D01*
X720866Y450426D01*
X720866Y447134D01*
X722126Y444093D01*
X724453Y441766D01*
X727494Y440506D01*
G37*
G36*
X305854Y440506D02*
X309146Y440506D01*
X312187Y441766D01*
X314514Y444093D01*
X315774Y447134D01*
X315774Y450426D01*
X314514Y453467D01*
X312187Y455794D01*
X309146Y457054D01*
X305854Y457054D01*
X302813Y455794D01*
X300486Y453467D01*
X299226Y450426D01*
X299226Y447134D01*
X300486Y444093D01*
X302813Y441766D01*
X305854Y440506D01*
G37*
G36*
X325854Y440506D02*
X329146Y440506D01*
X332187Y441766D01*
X334514Y444093D01*
X335774Y447134D01*
X335774Y450426D01*
X334514Y453467D01*
X332187Y455794D01*
X329146Y457054D01*
X325854Y457054D01*
X322813Y455794D01*
X320486Y453467D01*
X319226Y450426D01*
X319226Y447134D01*
X320486Y444093D01*
X322813Y441766D01*
X325854Y440506D01*
G37*
G36*
X727494Y420506D02*
X730786Y420506D01*
X733827Y421766D01*
X736154Y424093D01*
X737414Y427134D01*
X737414Y430426D01*
X736154Y433467D01*
X733827Y435794D01*
X730786Y437054D01*
X727494Y437054D01*
X724453Y435794D01*
X722126Y433467D01*
X720866Y430426D01*
X720866Y427134D01*
X722126Y424093D01*
X724453Y421766D01*
X727494Y420506D01*
G37*
G36*
X325854Y420506D02*
X329146Y420506D01*
X332187Y421766D01*
X334514Y424093D01*
X335774Y427134D01*
X335774Y430426D01*
X334514Y433467D01*
X332187Y435794D01*
X329146Y437054D01*
X325854Y437054D01*
X322813Y435794D01*
X320486Y433467D01*
X319226Y430426D01*
X319226Y427134D01*
X320486Y424093D01*
X322813Y421766D01*
X325854Y420506D01*
G37*
G36*
X305854Y420506D02*
X309146Y420506D01*
X312187Y421766D01*
X314514Y424093D01*
X315774Y427134D01*
X315774Y430426D01*
X314514Y433467D01*
X312187Y435794D01*
X309146Y437054D01*
X305854Y437054D01*
X302813Y435794D01*
X300486Y433467D01*
X299226Y430426D01*
X299226Y427134D01*
X300486Y424093D01*
X302813Y421766D01*
X305854Y420506D01*
G37*
G36*
X747494Y420506D02*
X750786Y420506D01*
X753827Y421766D01*
X756154Y424093D01*
X757414Y427134D01*
X757414Y430426D01*
X756154Y433467D01*
X753827Y435794D01*
X750786Y437054D01*
X747494Y437054D01*
X744453Y435794D01*
X742126Y433467D01*
X740866Y430426D01*
X740866Y427134D01*
X742126Y424093D01*
X744453Y421766D01*
X747494Y420506D01*
G37*
G36*
X747494Y400506D02*
X750786Y400506D01*
X753827Y401766D01*
X756154Y404093D01*
X757414Y407134D01*
X757414Y410426D01*
X756154Y413467D01*
X753827Y415794D01*
X750786Y417054D01*
X747494Y417054D01*
X744453Y415794D01*
X742126Y413467D01*
X740866Y410426D01*
X740866Y407134D01*
X742126Y404093D01*
X744453Y401766D01*
X747494Y400506D01*
G37*
G36*
X727494Y400506D02*
X730786Y400506D01*
X733827Y401766D01*
X736154Y404093D01*
X737414Y407134D01*
X737414Y410426D01*
X736154Y413467D01*
X733827Y415794D01*
X730786Y417054D01*
X727494Y417054D01*
X724453Y415794D01*
X722126Y413467D01*
X720866Y410426D01*
X720866Y407134D01*
X722126Y404093D01*
X724453Y401766D01*
X727494Y400506D01*
G37*
G36*
X305854Y400506D02*
X309146Y400506D01*
X312187Y401766D01*
X314514Y404093D01*
X315774Y407134D01*
X315774Y410426D01*
X314514Y413467D01*
X312187Y415794D01*
X309146Y417054D01*
X305854Y417054D01*
X302813Y415794D01*
X300486Y413467D01*
X299226Y410426D01*
X299226Y407134D01*
X300486Y404093D01*
X302813Y401766D01*
X305854Y400506D01*
G37*
G36*
X325854Y400506D02*
X329146Y400506D01*
X332187Y401766D01*
X334514Y404093D01*
X335774Y407134D01*
X335774Y410426D01*
X334514Y413467D01*
X332187Y415794D01*
X329146Y417054D01*
X325854Y417054D01*
X322813Y415794D01*
X320486Y413467D01*
X319226Y410426D01*
X319226Y407134D01*
X320486Y404093D01*
X322813Y401766D01*
X325854Y400506D01*
G37*
G36*
X747494Y380506D02*
X750786Y380506D01*
X753827Y381766D01*
X756154Y384093D01*
X757414Y387134D01*
X757414Y390426D01*
X756154Y393467D01*
X753827Y395794D01*
X750786Y397054D01*
X747494Y397054D01*
X744453Y395794D01*
X742126Y393467D01*
X740866Y390426D01*
X740866Y387134D01*
X742126Y384093D01*
X744453Y381766D01*
X747494Y380506D01*
G37*
G36*
X727494Y380506D02*
X730786Y380506D01*
X733827Y381766D01*
X736154Y384093D01*
X737414Y387134D01*
X737414Y390426D01*
X736154Y393467D01*
X733827Y395794D01*
X730786Y397054D01*
X727494Y397054D01*
X724453Y395794D01*
X722126Y393467D01*
X720866Y390426D01*
X720866Y387134D01*
X722126Y384093D01*
X724453Y381766D01*
X727494Y380506D01*
G37*
G36*
X325854Y380506D02*
X329146Y380506D01*
X332187Y381766D01*
X334514Y384093D01*
X335774Y387134D01*
X335774Y390426D01*
X334514Y393467D01*
X332187Y395794D01*
X329146Y397054D01*
X325854Y397054D01*
X322813Y395794D01*
X320486Y393467D01*
X319226Y390426D01*
X319226Y387134D01*
X320486Y384093D01*
X322813Y381766D01*
X325854Y380506D01*
G37*
G36*
X305854Y380506D02*
X309146Y380506D01*
X312187Y381766D01*
X314514Y384093D01*
X315774Y387134D01*
X315774Y390426D01*
X314514Y393467D01*
X312187Y395794D01*
X309146Y397054D01*
X305854Y397054D01*
X302813Y395794D01*
X300486Y393467D01*
X299226Y390426D01*
X299226Y387134D01*
X300486Y384093D01*
X302813Y381766D01*
X305854Y380506D01*
G37*
G36*
X747494Y360506D02*
X750786Y360506D01*
X753827Y361766D01*
X756154Y364093D01*
X757414Y367134D01*
X757414Y370426D01*
X756154Y373467D01*
X753827Y375794D01*
X750786Y377054D01*
X747494Y377054D01*
X744453Y375794D01*
X742126Y373467D01*
X740866Y370426D01*
X740866Y367134D01*
X742126Y364093D01*
X744453Y361766D01*
X747494Y360506D01*
G37*
G36*
X727494Y360506D02*
X730786Y360506D01*
X733827Y361766D01*
X736154Y364093D01*
X737414Y367134D01*
X737414Y370426D01*
X736154Y373467D01*
X733827Y375794D01*
X730786Y377054D01*
X727494Y377054D01*
X724453Y375794D01*
X722126Y373467D01*
X720866Y370426D01*
X720866Y367134D01*
X722126Y364093D01*
X724453Y361766D01*
X727494Y360506D01*
G37*
G36*
X325854Y360506D02*
X329146Y360506D01*
X332187Y361766D01*
X334514Y364093D01*
X335774Y367134D01*
X335774Y370426D01*
X334514Y373467D01*
X332187Y375794D01*
X329146Y377054D01*
X325854Y377054D01*
X322813Y375794D01*
X320486Y373467D01*
X319226Y370426D01*
X319226Y367134D01*
X320486Y364093D01*
X322813Y361766D01*
X325854Y360506D01*
G37*
G36*
X305854Y360506D02*
X309146Y360506D01*
X312187Y361766D01*
X314514Y364093D01*
X315774Y367134D01*
X315774Y370426D01*
X314514Y373467D01*
X312187Y375794D01*
X309146Y377054D01*
X305854Y377054D01*
X302813Y375794D01*
X300486Y373467D01*
X299226Y370426D01*
X299226Y367134D01*
X300486Y364093D01*
X302813Y361766D01*
X305854Y360506D01*
G37*
G36*
X727494Y340506D02*
X730786Y340506D01*
X733827Y341766D01*
X736154Y344093D01*
X737414Y347134D01*
X737414Y350426D01*
X736154Y353467D01*
X733827Y355794D01*
X730786Y357054D01*
X727494Y357054D01*
X724453Y355794D01*
X722126Y353467D01*
X720866Y350426D01*
X720866Y347134D01*
X722126Y344093D01*
X724453Y341766D01*
X727494Y340506D01*
G37*
G36*
X747494Y340506D02*
X750786Y340506D01*
X753827Y341766D01*
X756154Y344093D01*
X757414Y347134D01*
X757414Y350426D01*
X756154Y353467D01*
X753827Y355794D01*
X750786Y357054D01*
X747494Y357054D01*
X744453Y355794D01*
X742126Y353467D01*
X740866Y350426D01*
X740866Y347134D01*
X742126Y344093D01*
X744453Y341766D01*
X747494Y340506D01*
G37*
G36*
X305854Y340506D02*
X309146Y340506D01*
X312187Y341766D01*
X314514Y344093D01*
X315774Y347134D01*
X315774Y350426D01*
X314514Y353467D01*
X312187Y355794D01*
X309146Y357054D01*
X305854Y357054D01*
X302813Y355794D01*
X300486Y353467D01*
X299226Y350426D01*
X299226Y347134D01*
X300486Y344093D01*
X302813Y341766D01*
X305854Y340506D01*
G37*
G36*
X325854Y340506D02*
X329146Y340506D01*
X332187Y341766D01*
X334514Y344093D01*
X335774Y347134D01*
X335774Y350426D01*
X334514Y353467D01*
X332187Y355794D01*
X329146Y357054D01*
X325854Y357054D01*
X322813Y355794D01*
X320486Y353467D01*
X319226Y350426D01*
X319226Y347134D01*
X320486Y344093D01*
X322813Y341766D01*
X325854Y340506D01*
G37*
G36*
X305854Y320506D02*
X309146Y320506D01*
X312187Y321766D01*
X314514Y324093D01*
X315774Y327134D01*
X315774Y330426D01*
X314514Y333467D01*
X312187Y335794D01*
X309146Y337054D01*
X305854Y337054D01*
X302813Y335794D01*
X300486Y333467D01*
X299226Y330426D01*
X299226Y327134D01*
X300486Y324093D01*
X302813Y321766D01*
X305854Y320506D01*
G37*
G36*
X325854Y320506D02*
X329146Y320506D01*
X332187Y321766D01*
X334514Y324093D01*
X335774Y327134D01*
X335774Y330426D01*
X334514Y333467D01*
X332187Y335794D01*
X329146Y337054D01*
X325854Y337054D01*
X322813Y335794D01*
X320486Y333467D01*
X319226Y330426D01*
X319226Y327134D01*
X320486Y324093D01*
X322813Y321766D01*
X325854Y320506D01*
G37*
G36*
X727494Y320506D02*
X730786Y320506D01*
X733827Y321766D01*
X736154Y324093D01*
X737414Y327134D01*
X737414Y330426D01*
X736154Y333467D01*
X733827Y335794D01*
X730786Y337054D01*
X727494Y337054D01*
X724453Y335794D01*
X722126Y333467D01*
X720866Y330426D01*
X720866Y327134D01*
X722126Y324093D01*
X724453Y321766D01*
X727494Y320506D01*
G37*
G36*
X747494Y320506D02*
X750786Y320506D01*
X753827Y321766D01*
X756154Y324093D01*
X757414Y327134D01*
X757414Y330426D01*
X756154Y333467D01*
X753827Y335794D01*
X750786Y337054D01*
X747494Y337054D01*
X744453Y335794D01*
X742126Y333467D01*
X740866Y330426D01*
X740866Y327134D01*
X742126Y324093D01*
X744453Y321766D01*
X747494Y320506D01*
G37*
G36*
X727494Y300506D02*
X730786Y300506D01*
X733827Y301766D01*
X736154Y304093D01*
X737414Y307134D01*
X737414Y310426D01*
X736154Y313467D01*
X733827Y315794D01*
X730786Y317054D01*
X727494Y317054D01*
X724453Y315794D01*
X722126Y313467D01*
X720866Y310426D01*
X720866Y307134D01*
X722126Y304093D01*
X724453Y301766D01*
X727494Y300506D01*
G37*
G36*
X325854Y300506D02*
X329146Y300506D01*
X332187Y301766D01*
X334514Y304093D01*
X335774Y307134D01*
X335774Y310426D01*
X334514Y313467D01*
X332187Y315794D01*
X329146Y317054D01*
X325854Y317054D01*
X322813Y315794D01*
X320486Y313467D01*
X319226Y310426D01*
X319226Y307134D01*
X320486Y304093D01*
X322813Y301766D01*
X325854Y300506D01*
G37*
G36*
X305854Y300506D02*
X309146Y300506D01*
X312187Y301766D01*
X314514Y304093D01*
X315774Y307134D01*
X315774Y310426D01*
X314514Y313467D01*
X312187Y315794D01*
X309146Y317054D01*
X305854Y317054D01*
X302813Y315794D01*
X300486Y313467D01*
X299226Y310426D01*
X299226Y307134D01*
X300486Y304093D01*
X302813Y301766D01*
X305854Y300506D01*
G37*
G36*
X747494Y300506D02*
X750786Y300506D01*
X753827Y301766D01*
X756154Y304093D01*
X757414Y307134D01*
X757414Y310426D01*
X756154Y313467D01*
X753827Y315794D01*
X750786Y317054D01*
X747494Y317054D01*
X744453Y315794D01*
X742126Y313467D01*
X740866Y310426D01*
X740866Y307134D01*
X742126Y304093D01*
X744453Y301766D01*
X747494Y300506D01*
G37*
G36*
X727494Y280506D02*
X730786Y280506D01*
X733827Y281766D01*
X736154Y284093D01*
X737414Y287134D01*
X737414Y290426D01*
X736154Y293467D01*
X733827Y295794D01*
X730786Y297054D01*
X727494Y297054D01*
X724453Y295794D01*
X722126Y293467D01*
X720866Y290426D01*
X720866Y287134D01*
X722126Y284093D01*
X724453Y281766D01*
X727494Y280506D01*
G37*
G36*
X747494Y280506D02*
X750786Y280506D01*
X753827Y281766D01*
X756154Y284093D01*
X757414Y287134D01*
X757414Y290426D01*
X756154Y293467D01*
X753827Y295794D01*
X750786Y297054D01*
X747494Y297054D01*
X744453Y295794D01*
X742126Y293467D01*
X740866Y290426D01*
X740866Y287134D01*
X742126Y284093D01*
X744453Y281766D01*
X747494Y280506D01*
G37*
G36*
X325854Y280506D02*
X329146Y280506D01*
X332187Y281766D01*
X334514Y284093D01*
X335774Y287134D01*
X335774Y290426D01*
X334514Y293467D01*
X332187Y295794D01*
X329146Y297054D01*
X325854Y297054D01*
X322813Y295794D01*
X320486Y293467D01*
X319226Y290426D01*
X319226Y287134D01*
X320486Y284093D01*
X322813Y281766D01*
X325854Y280506D01*
G37*
G36*
X305854Y280506D02*
X309146Y280506D01*
X312187Y281766D01*
X314514Y284093D01*
X315774Y287134D01*
X315774Y290426D01*
X314514Y293467D01*
X312187Y295794D01*
X309146Y297054D01*
X305854Y297054D01*
X302813Y295794D01*
X300486Y293467D01*
X299226Y290426D01*
X299226Y287134D01*
X300486Y284093D01*
X302813Y281766D01*
X305854Y280506D01*
G37*
G36*
X727494Y260506D02*
X730786Y260506D01*
X733827Y261766D01*
X736154Y264093D01*
X737414Y267134D01*
X737414Y270426D01*
X736154Y273467D01*
X733827Y275794D01*
X730786Y277054D01*
X727494Y277054D01*
X724453Y275794D01*
X722126Y273467D01*
X720866Y270426D01*
X720866Y267134D01*
X722126Y264093D01*
X724453Y261766D01*
X727494Y260506D01*
G37*
G36*
X325854Y260506D02*
X329146Y260506D01*
X332187Y261766D01*
X334514Y264093D01*
X335774Y267134D01*
X335774Y270426D01*
X334514Y273467D01*
X332187Y275794D01*
X329146Y277054D01*
X325854Y277054D01*
X322813Y275794D01*
X320486Y273467D01*
X319226Y270426D01*
X319226Y267134D01*
X320486Y264093D01*
X322813Y261766D01*
X325854Y260506D01*
G37*
G36*
X305854Y260506D02*
X309146Y260506D01*
X312187Y261766D01*
X314514Y264093D01*
X315774Y267134D01*
X315774Y270426D01*
X314514Y273467D01*
X312187Y275794D01*
X309146Y277054D01*
X305854Y277054D01*
X302813Y275794D01*
X300486Y273467D01*
X299226Y270426D01*
X299226Y267134D01*
X300486Y264093D01*
X302813Y261766D01*
X305854Y260506D01*
G37*
G36*
X747494Y260506D02*
X750786Y260506D01*
X753827Y261766D01*
X756154Y264093D01*
X757414Y267134D01*
X757414Y270426D01*
X756154Y273467D01*
X753827Y275794D01*
X750786Y277054D01*
X747494Y277054D01*
X744453Y275794D01*
X742126Y273467D01*
X740866Y270426D01*
X740866Y267134D01*
X742126Y264093D01*
X744453Y261766D01*
X747494Y260506D01*
G37*
%LPD*%
G36*
X639222Y357558D02*
X638926Y357493D01*
X638628Y357549D01*
X638375Y357716D01*
X629979Y366113D01*
X629818Y366349D01*
X629756Y366645D01*
X629813Y366943D01*
X630344Y368224D01*
X630344Y371416D01*
X629122Y374365D01*
X626856Y376632D01*
X626655Y376760D01*
X626478Y377006D01*
X626411Y377302D01*
X626464Y377600D01*
X626629Y377855D01*
X626853Y378005D01*
X629122Y380275D01*
X630344Y383224D01*
X630344Y386416D01*
X629122Y389365D01*
X626856Y391632D01*
X626655Y391760D01*
X626478Y392006D01*
X626411Y392302D01*
X626464Y392600D01*
X626629Y392855D01*
X626853Y393005D01*
X629122Y395275D01*
X630344Y398224D01*
X630344Y401416D01*
X629270Y404010D01*
X629212Y404289D01*
X629267Y404587D01*
X629435Y404840D01*
X639845Y415250D01*
X640075Y415408D01*
X640372Y415473D01*
X640670Y415417D01*
X640923Y415250D01*
X642595Y413577D01*
X642753Y413347D01*
X642818Y413051D01*
X642763Y412752D01*
X642595Y412500D01*
X640036Y409941D01*
X638660Y406618D01*
X638660Y405582D01*
X657047Y405582D01*
X657194Y405686D01*
X657490Y405751D01*
X657788Y405695D01*
X658041Y405528D01*
X659923Y403646D01*
X660086Y403404D01*
X660146Y403107D01*
X660146Y366309D01*
X660099Y366045D01*
X659940Y365787D01*
X659692Y365612D01*
X659396Y365547D01*
X659098Y365602D01*
X658845Y365770D01*
X654815Y369800D01*
X654655Y370036D01*
X654592Y370333D01*
X654650Y370631D01*
X655724Y373224D01*
X655724Y376416D01*
X654502Y379365D01*
X652236Y381632D01*
X652035Y381760D01*
X651858Y382006D01*
X651791Y382302D01*
X651844Y382600D01*
X652009Y382855D01*
X652233Y383005D01*
X654502Y385275D01*
X655724Y388224D01*
X655724Y391416D01*
X654502Y394365D01*
X652805Y396063D01*
X652647Y396293D01*
X652582Y396589D01*
X652637Y396888D01*
X652805Y397140D01*
X655364Y399699D01*
X656740Y403022D01*
X656740Y404058D01*
X638660Y404058D01*
X638660Y403022D01*
X640036Y399699D01*
X642595Y397140D01*
X642753Y396910D01*
X642818Y396614D01*
X642763Y396316D01*
X642595Y396063D01*
X640898Y394365D01*
X639676Y391416D01*
X639676Y388224D01*
X640898Y385275D01*
X643164Y383008D01*
X643365Y382880D01*
X643542Y382634D01*
X643609Y382338D01*
X643556Y382040D01*
X643391Y381786D01*
X643167Y381635D01*
X640898Y379365D01*
X639676Y376416D01*
X639676Y373224D01*
X640898Y370275D01*
X643164Y368008D01*
X643365Y367880D01*
X643542Y367634D01*
X643609Y367338D01*
X643556Y367040D01*
X643391Y366786D01*
X643167Y366635D01*
X640898Y364365D01*
X639676Y361416D01*
X639676Y358255D01*
X639629Y357992D01*
X639470Y357734D01*
X639222Y357558D01*
G37*
G36*
X436901Y340692D02*
X436604Y340629D01*
X436306Y340687D01*
X432765Y342154D01*
X427967Y342154D01*
X425334Y341063D01*
X425066Y341006D01*
X424767Y341056D01*
X424512Y341220D01*
X424340Y341470D01*
X424280Y341767D01*
X424280Y346736D01*
X424327Y346999D01*
X424486Y347257D01*
X424734Y347433D01*
X425030Y347498D01*
X425328Y347442D01*
X425581Y347275D01*
X425699Y347156D01*
X429022Y345780D01*
X430058Y345780D01*
X430058Y355582D01*
X431582Y355582D01*
X431582Y345780D01*
X432618Y345780D01*
X435941Y347156D01*
X436059Y347275D01*
X436279Y347428D01*
X436574Y347498D01*
X436873Y347447D01*
X437128Y347283D01*
X437300Y347033D01*
X437360Y346736D01*
X437360Y341391D01*
X437311Y341122D01*
X437150Y340865D01*
X436901Y340692D01*
G37*
D10*
X307500Y528780D03*
X327500Y528780D03*
X307500Y508780D03*
X327500Y508780D03*
X307500Y488780D03*
X327500Y488780D03*
X307500Y468780D03*
X327500Y468780D03*
X307500Y448780D03*
X327500Y448780D03*
X307500Y428780D03*
X327500Y428780D03*
X307500Y408780D03*
X327500Y408780D03*
X307500Y388780D03*
X327500Y388780D03*
X307500Y368780D03*
X327500Y368780D03*
X307500Y348780D03*
X327500Y348780D03*
X307500Y328780D03*
X327500Y328780D03*
X307500Y308780D03*
X327500Y308780D03*
X307500Y288780D03*
X327500Y288780D03*
X307500Y268780D03*
X327500Y268780D03*
X729140Y528780D03*
X749140Y528780D03*
X729140Y508780D03*
X749140Y508780D03*
X729140Y488780D03*
X749140Y488780D03*
X729140Y468780D03*
X749140Y468780D03*
X729140Y448780D03*
X749140Y448780D03*
X729140Y428780D03*
X749140Y428780D03*
X729140Y408780D03*
X749140Y408780D03*
X729140Y388780D03*
X749140Y388780D03*
X729140Y368780D03*
X749140Y368780D03*
X729140Y348780D03*
X749140Y348780D03*
X729140Y328780D03*
X749140Y328780D03*
X729140Y308780D03*
X749140Y308780D03*
X729140Y288780D03*
X749140Y288780D03*
X729140Y268780D03*
X749140Y268780D03*
D11*
X647700Y464820D03*
X622320Y459820D03*
X596940Y454820D03*
X647700Y449820D03*
X622320Y444820D03*
X596940Y439820D03*
X647700Y434820D03*
X622320Y429820D03*
X596940Y424820D03*
X647700Y419820D03*
X622320Y414820D03*
X596940Y409820D03*
X647700Y404820D03*
X622320Y399820D03*
X596940Y394820D03*
X647700Y389820D03*
X622320Y384820D03*
X596940Y379820D03*
X647700Y374820D03*
X622320Y369820D03*
X596940Y364820D03*
X647700Y359820D03*
X622320Y354820D03*
X596940Y349820D03*
X456200Y464820D03*
X430820Y459820D03*
X405440Y454820D03*
X456200Y449820D03*
X430820Y444820D03*
X405440Y439820D03*
X456200Y434820D03*
X430820Y429820D03*
X405440Y424820D03*
X456200Y419820D03*
X430820Y414820D03*
X405440Y409820D03*
X456200Y404820D03*
X430820Y399820D03*
X405440Y394820D03*
X456200Y389820D03*
X430820Y384820D03*
X405440Y379820D03*
X456200Y374820D03*
X430820Y369820D03*
X405440Y364820D03*
X456200Y359820D03*
X430820Y354820D03*
X405440Y349820D03*
D12*
X551180Y541020D03*
X678180Y403860D03*
X287020Y574040D03*
X289560Y243840D03*
X518160Y251460D03*
X520700Y363220D03*
X568960Y439420D03*
X482600Y520700D03*
D13*
X482600Y431220D01*
X456200Y404820D01*
X452700Y401320D01*
X432320Y401320D02*
X430820Y399820D01*
X432320Y401320D02*
X452700Y401320D01*
D12*
X482600Y431220D03*
X406400Y279400D03*
D14*
X406400Y337580D01*
X414774Y345954D01*
X414774Y355486D01*
X405440Y364820D01*
D12*
X447040Y302260D03*
D14*
X446866Y355954D02*
X446866Y365486D01*
X456200Y374820D01*
X447040Y322169D02*
X447040Y302260D01*
X447040Y322169D02*
X447760Y322889D01*
X447760Y355060D01*
X446866Y355954D01*
X440154Y375486D02*
X430820Y384820D01*
X443696Y335616D02*
X443696Y324573D01*
X443696Y335616D02*
X440154Y339158D01*
X440154Y375486D01*
D12*
X439593Y312247D03*
D14*
X439593Y320469D01*
X443696Y324573D01*
D12*
X373380Y340360D03*
D14*
X373380Y362760D01*
X405440Y394820D01*
D12*
X386080Y350520D03*
D14*
X389664Y346936D01*
X389664Y286836D01*
X459924Y270284D02*
X473936Y284296D01*
X473936Y405356D02*
X480060Y411480D01*
X473936Y405356D02*
X473936Y284296D01*
X406216Y270284D02*
X389664Y286836D01*
X406216Y270284D02*
X459924Y270284D01*
D12*
X480060Y411480D03*
X363220Y401320D03*
D14*
X363220Y508000D01*
X378460Y523240D01*
X378460Y522712D01*
D12*
X378460Y522712D03*
X444500Y520700D03*
D14*
X444500Y443500D01*
X430820Y429820D01*
D12*
X457200Y276860D03*
D14*
X457200Y358820D01*
X456200Y359820D01*
D12*
X429260Y289560D03*
D14*
X421486Y360486D02*
X430820Y369820D01*
X421486Y360486D02*
X421486Y340066D01*
X417036Y335616D01*
X417036Y301784D01*
X429260Y289560D01*
X396106Y310014D02*
X396106Y370486D01*
X396106Y310014D02*
X396240Y309880D01*
X396106Y370486D02*
X405440Y379820D01*
D12*
X396240Y306606D03*
D14*
X396240Y309880D01*
D12*
X375920Y426720D03*
D14*
X375920Y462280D01*
X396240Y482600D01*
D12*
X396240Y482600D03*
X581660Y292100D03*
D14*
X581660Y394540D01*
X596940Y409820D01*
D12*
X655320Y563880D03*
D14*
X655320Y480060D01*
X649374Y474114D02*
X643850Y474114D01*
X622320Y401676D02*
X622320Y399820D01*
X649374Y474114D02*
X655320Y480060D01*
X643850Y474114D02*
X638406Y468670D01*
X638406Y417762D01*
X622320Y401676D01*
D12*
X632460Y261620D03*
D14*
X622320Y412964D02*
X622320Y414820D01*
X609190Y284890D02*
X632460Y261620D01*
X609190Y284890D02*
X609190Y399834D01*
X622320Y412964D01*
D12*
X662940Y340360D03*
D14*
X662940Y404580D01*
X647700Y419820D01*
D12*
X652780Y304800D03*
D14*
X647700Y309880D01*
X647700Y359820D01*
D12*
X642620Y289560D03*
D14*
X642620Y349520D01*
X622320Y369820D01*
D12*
X670560Y297180D03*
D14*
X647700Y372964D02*
X647700Y374820D01*
X647700Y372964D02*
X656994Y363670D01*
X656994Y310746D02*
X670560Y297180D01*
X656994Y310746D02*
X656994Y363670D01*
D12*
X622300Y261620D03*
D14*
X596940Y392964D02*
X596940Y394820D01*
X596940Y392964D02*
X587646Y383670D01*
X587646Y296274D02*
X622300Y261620D01*
X587646Y296274D02*
X587646Y383670D01*
D12*
X574040Y297180D03*
D14*
X576580Y299720D02*
X576580Y404460D01*
X576580Y299720D02*
X574040Y297180D01*
X576580Y404460D02*
X596940Y424820D01*
D12*
X624840Y528320D03*
D14*
X607060Y510540D01*
X607060Y475080D01*
X622320Y459820D01*
D12*
X599440Y530860D03*
D14*
X599440Y514415D01*
X598932Y513907D01*
X598932Y456812D02*
X596940Y454820D01*
X598932Y456812D02*
X598932Y513907D01*
D12*
X612140Y538480D03*
D14*
X622320Y446676D02*
X622320Y444820D01*
X607946Y534286D02*
X612140Y538480D01*
X607946Y534286D02*
X607946Y517173D01*
X602996Y512223D01*
X602996Y466000D01*
X622320Y446676D01*
D12*
X594360Y546100D03*
D14*
X594360Y534002D01*
X587646Y527288D01*
X587646Y449114D01*
X596940Y439820D01*
D12*
X647700Y556260D03*
D14*
X635866Y544426D01*
X635866Y471877D01*
X634342Y470353D01*
X634342Y441842D02*
X622320Y429820D01*
X634342Y441842D02*
X634342Y470353D01*
D12*
X414020Y541020D03*
D14*
X414020Y463400D01*
X405440Y454820D01*
D12*
X467360Y330200D03*
D14*
X467360Y378660D01*
X456200Y389820D01*
M02*
