M48
;GenerationSoftware,Autodesk,EAGLE,9.7.0*%
;CreationDate,2025-02-03T15:41:21Z*%
FMAT,2
ICI,OFF
METRIC,TZ,000.000
T4C0.350
T3C0.800
T2C0.900
T1C1.650
%
G90
M71
T1
X62252Y32935
X43037Y48503
X62252Y48429
X43037Y33009
T2
X32750Y32878
X30750Y30878
X32750Y30878
X30750Y28878
X32750Y28878
X30750Y26878
X32750Y26878
X72914Y52878
X74914Y26878
X72914Y26878
X74914Y28878
X72914Y28878
X74914Y30878
X72914Y30878
X74914Y52878
X74914Y32878
X72914Y32878
X74914Y34878
X72914Y34878
X74914Y36878
X72914Y36878
X74914Y38878
X72914Y38878
X74914Y40878
X72914Y40878
X74914Y42878
X72914Y42878
X74914Y44878
X72914Y44878
X74914Y46878
X72914Y46878
X74914Y48878
X72914Y48878
X74914Y50878
X72914Y50878
X32750Y36878
X30750Y34878
X32750Y34878
X30750Y32878
X43652Y57122
X40652Y57122
X30750Y52878
X32750Y52878
X30750Y50878
X32750Y50878
X30750Y48878
X32750Y48878
X30750Y46878
X32750Y46878
X30750Y44878
X32750Y44878
X30750Y42878
X32750Y42878
X30750Y40878
X32750Y40878
X30750Y38878
X32750Y38878
X30750Y36878
T3
X45620Y40482
X43082Y39982
X40544Y39482
X45620Y38982
X43082Y38482
X40544Y37982
X45620Y37482
X43082Y36982
X40544Y36482
X45620Y35982
X43082Y35482
X40544Y34982
X40544Y43982
X64770Y46482
X62232Y45982
X59694Y45482
X64770Y44982
X62232Y44482
X59694Y43982
X64770Y43482
X62232Y42982
X59694Y42482
X64770Y41982
X62232Y41482
X59694Y40982
X64770Y40482
X62232Y39982
X59694Y39482
X64770Y38982
X62232Y38482
X59694Y37982
X64770Y37482
X62232Y36982
X59694Y36482
X64770Y35982
X62232Y35482
X59694Y34982
X45620Y46482
X43082Y45982
X40544Y45482
X45620Y44982
X43082Y44482
X45620Y43482
X43082Y42982
X40544Y42482
X45620Y41982
X43082Y41482
X40544Y40982
T4
X55118Y54102
X67818Y40386
X28702Y57404
X28956Y24384
X51816Y25146
X52070Y36322
X56896Y43942
X48260Y52070
X48260Y43122
X40640Y27940
X44704Y30226
X43959Y31225
X37846Y52271
X36322Y40132
X48006Y41148
X38608Y35052
X37338Y34036
X46736Y33020
X41402Y54102
X64770Y55626
X45720Y27686
X59436Y54610
X61214Y53848
X59944Y53086
X62484Y52832
X57404Y29718
X62230Y26162
X67056Y29718
X64262Y28956
X65278Y30480
X66294Y34036
X63246Y26162
X65532Y56388
X58166Y29210
X39624Y48260
X37592Y42672
X39624Y30661
X42926Y28956
X44450Y52070
M30