G04 EAGLE Gerber RS-274X export*
G75*
%MOMM*%
%FSLAX34Y34*%
%LPD*%
%INBottom Copper*%
%IPPOS*%
%AMOC8*
5,1,8,0,0,1.08239X$1,22.5*%
G01*
G04 Define Apertures*
%ADD10R,0.600000X2.200000*%
%ADD11C,0.604000*%
%ADD12C,0.304800*%
%ADD13C,0.254000*%
D10*
X565150Y320300D03*
X425450Y320300D03*
X577850Y320300D03*
X552450Y320300D03*
X539750Y320300D03*
X412750Y320300D03*
X438150Y320300D03*
X450850Y320300D03*
X514350Y320300D03*
X476250Y320300D03*
X527050Y320300D03*
X501650Y320300D03*
X463550Y320300D03*
X488950Y320300D03*
X400050Y320300D03*
X387350Y320300D03*
X374650Y320300D03*
X361950Y320300D03*
X349250Y320300D03*
X336550Y320300D03*
X323850Y320300D03*
X311150Y320300D03*
X311150Y467100D03*
X323850Y467100D03*
X336550Y467100D03*
X349250Y467100D03*
X361950Y467100D03*
X374650Y467100D03*
X387350Y467100D03*
X400050Y467100D03*
X412750Y467100D03*
X425450Y467100D03*
X438150Y467100D03*
X450850Y467100D03*
X463550Y467100D03*
X476250Y467100D03*
X488950Y467100D03*
X501650Y467100D03*
X514350Y467100D03*
X527050Y467100D03*
X539750Y467100D03*
X552450Y467100D03*
X565150Y467100D03*
X577850Y467100D03*
D11*
X387350Y422910D03*
X387350Y467360D03*
D12*
X387350Y422910D01*
D11*
X356516Y378460D03*
D12*
X349250Y371194D01*
D11*
X349250Y320040D03*
D12*
X349250Y371194D01*
D11*
X365659Y373481D03*
D12*
X361950Y369772D01*
D11*
X361950Y320040D03*
D12*
X361950Y369772D01*
D11*
X375920Y368300D03*
X374650Y320040D03*
D12*
X374650Y367030D02*
X375920Y368300D01*
X374650Y367030D02*
X374650Y320040D01*
D11*
X386080Y363220D03*
D12*
X387350Y361950D01*
X387350Y320040D01*
D11*
X387350Y320040D03*
X400050Y359410D03*
D12*
X400050Y321310D01*
D11*
X412750Y353060D03*
X412750Y320040D03*
D12*
X412750Y353060D01*
D11*
X425450Y349250D03*
D12*
X425450Y320040D01*
D11*
X425450Y320040D03*
X438150Y344170D03*
D12*
X438150Y320040D01*
D11*
X438150Y320040D03*
X364566Y414096D03*
D12*
X361950Y416712D01*
D11*
X361950Y467360D03*
D12*
X361950Y416712D01*
D11*
X476250Y346840D03*
X476250Y320040D03*
D12*
X476250Y346840D01*
D11*
X374650Y419100D03*
X374650Y467360D03*
D12*
X374650Y419100D01*
D11*
X356870Y408940D03*
D12*
X349250Y416560D01*
D11*
X349250Y467360D03*
D12*
X349250Y416560D01*
D11*
X336550Y467360D03*
D12*
X336550Y457200D01*
X323850Y444500D01*
D11*
X323850Y444500D03*
X401320Y427990D03*
D12*
X400050Y429260D01*
D11*
X400050Y467360D03*
D12*
X400050Y429260D01*
D11*
X412750Y433070D03*
X412750Y467360D03*
D12*
X412750Y433070D01*
D11*
X425450Y435610D03*
X425450Y467360D03*
D12*
X425450Y435610D01*
D11*
X438150Y443230D03*
X438150Y467360D03*
D12*
X438150Y443230D01*
D11*
X325120Y350520D03*
D12*
X336550Y339090D01*
X336550Y314960D01*
D11*
X488950Y353030D03*
X488950Y320040D03*
D12*
X488950Y353030D01*
D11*
X514350Y362602D03*
X514350Y320040D03*
D12*
X514350Y362602D01*
D11*
X565150Y467360D03*
X539750Y467360D03*
X514350Y424180D03*
X514350Y467360D03*
D12*
X514350Y424180D01*
D11*
X488950Y434340D03*
D12*
X488950Y467360D01*
D11*
X488950Y467360D03*
X501650Y358030D03*
X501650Y320040D03*
D12*
X501650Y358030D01*
D11*
X523875Y368030D03*
D12*
X527050Y364855D01*
X527050Y320040D01*
D11*
X527050Y320040D03*
X552450Y467360D03*
X524510Y419100D03*
D13*
X524510Y421640D01*
D12*
X527050Y424180D01*
D11*
X527050Y467360D03*
D12*
X527050Y424180D01*
D11*
X502920Y429260D03*
D13*
X501650Y430530D01*
D12*
X501650Y467360D01*
D11*
X501650Y467360D03*
X476250Y439420D03*
D12*
X476250Y467360D01*
D11*
X476250Y467360D03*
X577850Y467360D03*
X463550Y467360D03*
X450850Y467360D03*
X323850Y467360D03*
X311150Y467360D03*
X311150Y320040D03*
X323850Y320040D03*
X336550Y320040D03*
X400050Y320040D03*
X450850Y320040D03*
X463550Y320040D03*
X539750Y320040D03*
X552450Y320040D03*
X565150Y320040D03*
X577850Y320040D03*
M02*
