M48
;GenerationSoftware,Autodesk,EAGLE,9.7.0*%
;CreationDate,2025-02-01T23:00:39Z*%
FMAT,2
ICI,OFF
METRIC,TZ,000.000
T1C0.350
%
G90
M71
T1
X38735Y42291
X38735Y46736
X35652Y37846
X34925Y32004
X36566Y37348
X36195Y32004
X37592Y36830
X37465Y32004
X38608Y36322
X38735Y32004
X40005Y35941
X41275Y35306
X41275Y32004
X42545Y34925
X42545Y32004
X43815Y34417
X43815Y32004
X36457Y41410
X36195Y46736
X47625Y34684
X47625Y32004
X37465Y41910
X37465Y46736
X35687Y40894
X34925Y46736
X33655Y46736
X32385Y44450
X40132Y42799
X40005Y46736
X41275Y43307
X41275Y46736
X42545Y43561
X42545Y46736
X43815Y44323
X43815Y46736
X32512Y35052
X48895Y35303
X48895Y32004
X51435Y36260
X51435Y32004
X56515Y46736
X53975Y46736
X51435Y42418
X51435Y46736
X48895Y43434
X48895Y46736
X50165Y35803
X50165Y32004
X52387Y36803
X52705Y32004
X55245Y46736
X52451Y41910
X52705Y46736
X50292Y42926
X50165Y46736
X47625Y43942
X47625Y46736
X57785Y46736
X46355Y46736
X45085Y46736
X32385Y46736
X31115Y46736
X31115Y32004
X32385Y32004
X33655Y32004
X40005Y32004
X45085Y32004
X46355Y32004
X53975Y32004
X55245Y32004
X56515Y32004
X57785Y32004
M30