G04 EAGLE Gerber RS-274X export*
G75*
%MOMM*%
%FSLAX34Y34*%
%LPD*%
%INSoldermask Bottom*%
%IPPOS*%
%AMOC8*
5,1,8,0,0,1.08239X$1,22.5*%
G01*
G04 Define Apertures*
%ADD10R,0.727000X2.327000*%
D10*
X565150Y320300D03*
X425450Y320300D03*
X577850Y320300D03*
X552450Y320300D03*
X539750Y320300D03*
X412750Y320300D03*
X438150Y320300D03*
X450850Y320300D03*
X514350Y320300D03*
X476250Y320300D03*
X527050Y320300D03*
X501650Y320300D03*
X463550Y320300D03*
X488950Y320300D03*
X400050Y320300D03*
X387350Y320300D03*
X374650Y320300D03*
X361950Y320300D03*
X349250Y320300D03*
X336550Y320300D03*
X323850Y320300D03*
X311150Y320300D03*
X311150Y467100D03*
X323850Y467100D03*
X336550Y467100D03*
X349250Y467100D03*
X361950Y467100D03*
X374650Y467100D03*
X387350Y467100D03*
X400050Y467100D03*
X412750Y467100D03*
X425450Y467100D03*
X438150Y467100D03*
X450850Y467100D03*
X463550Y467100D03*
X476250Y467100D03*
X488950Y467100D03*
X501650Y467100D03*
X514350Y467100D03*
X527050Y467100D03*
X539750Y467100D03*
X552450Y467100D03*
X565150Y467100D03*
X577850Y467100D03*
M02*
