G04 EAGLE Gerber RS-274X export*
G75*
%MOMM*%
%FSLAX34Y34*%
%LPD*%
%INSoldermask Top*%
%IPPOS*%
%AMOC8*
5,1,8,0,0,1.08239X$1,22.5*%
G01*
G04 Define Apertures*
%ADD10R,0.727000X2.327000*%
%ADD11R,1.200000X0.400000*%
D10*
X323850Y320300D03*
X463550Y320300D03*
X311150Y320300D03*
X336550Y320300D03*
X349250Y320300D03*
X476250Y320300D03*
X450850Y320300D03*
X438150Y320300D03*
X374650Y320300D03*
X412750Y320300D03*
X361950Y320300D03*
X387350Y320300D03*
X425450Y320300D03*
X400050Y320300D03*
X488950Y320300D03*
X501650Y320300D03*
X514350Y320300D03*
X527050Y320300D03*
X539750Y320300D03*
X552450Y320300D03*
X565150Y320300D03*
X577850Y320300D03*
X577850Y467100D03*
X565150Y467100D03*
X552450Y467100D03*
X539750Y467100D03*
X527050Y467100D03*
X514350Y467100D03*
X501650Y467100D03*
X488950Y467100D03*
X476250Y467100D03*
X463550Y467100D03*
X450850Y467100D03*
X438150Y467100D03*
X425450Y467100D03*
X412750Y467100D03*
X400050Y467100D03*
X387350Y467100D03*
X374650Y467100D03*
X361950Y467100D03*
X349250Y467100D03*
X336550Y467100D03*
X323850Y467100D03*
X311150Y467100D03*
D11*
X340630Y451200D03*
X340630Y446200D03*
X340630Y441200D03*
X340630Y436200D03*
X340630Y431200D03*
X340630Y426200D03*
X340630Y421200D03*
X340630Y416200D03*
X340630Y411200D03*
X340630Y406200D03*
X340630Y401200D03*
X340630Y396200D03*
X340630Y391200D03*
X340630Y386200D03*
X340630Y381200D03*
X340630Y376200D03*
X340630Y371200D03*
X340630Y366200D03*
X340630Y361200D03*
X340630Y356200D03*
X340630Y351200D03*
X340630Y346200D03*
X340630Y341200D03*
X340630Y336200D03*
X533130Y336200D03*
X533130Y341200D03*
X533130Y346200D03*
X533130Y351200D03*
X533130Y356200D03*
X533130Y361200D03*
X533130Y366200D03*
X533130Y371200D03*
X533130Y376200D03*
X533130Y381200D03*
X533130Y386200D03*
X533130Y391200D03*
X533130Y396200D03*
X533130Y401200D03*
X533130Y406200D03*
X533130Y411200D03*
X533130Y416200D03*
X533130Y421200D03*
X533130Y426200D03*
X533130Y431200D03*
X533130Y436200D03*
X533130Y441200D03*
X533130Y446200D03*
X533130Y451200D03*
M02*
